<svg xmlns="http://www.w3.org/2000/svg" viewBox="531 298 212 213">
  <rect x="531" y="298" width="212" height="213" fill="#575545" />
  <path d="M 637.234375 325.828125 C 689.015625 325.828125 719.078125 372.101562 713.003906 397.066406 C 708.472656 415.90625 694.628906 420.589844 684.074219 420.589844 C 679.082031 420.589844 674.8125 419.558594 672.546875 418.476562 C 657.671875 411.324219 658.289062 398.765625 661.941406 393.359375 C 662.507812 392.382812 663.28125 391.816406 663.796875 391.816406 C 663.898438 391.816406 664 391.867188 664.105469 391.917969 C 664.824219 392.433594 664.257812 393.410156 664.308594 395.058594 C 664.363281 400.359375 668.6875 405.507812 677.746094 405.507812 C 678.621094 405.507812 679.496094 405.457031 680.421875 405.351562 C 688.65625 404.527344 695.605469 391.917969 688.605469 381.828125 C 684.074219 375.34375 675.890625 372.203125 668.375 372.203125 C 666.371094 372.203125 664.363281 372.410156 662.558594 372.875 C 636.980469 379.050781 636.464844 408.390625 648.300781 424.242188 C 656.125 434.691406 668.6875 440.148438 681.398438 440.148438 C 690.40625 440.148438 699.414062 437.421875 706.828125 431.808594 C 708.78125 430.316406 709.761719 429.082031 710.6875 429.082031 C 710.894531 429.082031 711.097656 429.132812 711.253906 429.289062 C 712.539062 430.164062 710.839844 433.40625 709.246094 437.058594 C 698.128906 462.589844 673.371094 481.890625 639.605469 483.488281 C 638.417969 483.539062 637.234375 483.589844 636.105469 483.589844 C 591.015625 483.589844 557.503906 441.796875 561.160156 415.542969 C 564.195312 393.460938 580.824219 388.316406 591.835938 388.316406 C 595.234375 388.316406 598.066406 388.777344 599.816406 389.449219 C 616.285156 395.46875 615.71875 410.5 611.550781 416.316406 C 610.316406 417.910156 609.234375 418.683594 608.617188 418.683594 C 608.207031 418.683594 608 418.324219 608.101562 417.65625 C 608.359375 416.058594 608.566406 415.957031 608.359375 414.308594 C 607.742188 409.832031 603.984375 403.859375 596.519531 403.859375 C 595.027344 403.859375 593.382812 404.117188 591.582031 404.632812 C 582.316406 407.410156 578.609375 420.074219 586.792969 429.390625 C 591.527344 434.796875 599.09375 437.265625 606.148438 437.265625 C 609.082031 437.265625 611.964844 436.800781 614.433594 435.980469 C 639.242188 427.433594 637.441406 397.890625 624.058594 383.015625 C 615.207031 373.183594 603.417969 367.933594 591.835938 367.933594 C 583.394531 367.933594 575.058594 370.710938 568.109375 376.578125 C 566.460938 377.816406 565.84375 378.691406 564.96875 378.691406 C 564.761719 378.691406 564.503906 378.636719 564.25 378.535156 C 562.910156 377.917969 563.476562 376.941406 564.761719 373.800781 C 574.953125 348.9375 599.558594 327.371094 633.683594 326.035156 C 634.867188 325.980469 636.050781 325.980469 637.234375 325.980469 Z" fill="white" />
  <path d="M 636.464844 298.753906 C 578.402344 299.164062 531.304688 346.519531 531.304688 404.632812 C 531.304688 463 578.816406 510.511719 637.183594 510.511719 C 695.554688 510.511719 743.113281 463 743.113281 404.632812 C 743.113281 346.519531 695.964844 299.164062 637.957031 298.753906 Z" fill="none" stroke="white" stroke-width="2" />
</svg>
