<svg xmlns="http://www.w3.org/2000/svg" xmlns:xlink="http://www.w3.org/1999/xlink" width="1920" zoomAndPan="magnify" viewBox="0 0 1440 809.999993" height="1080" preserveAspectRatio="xMidYMid meet" version="1.0"><defs><clipPath id="cfaa5e9a3c"><path d="M 531.003906 298 L 743.410156 298 L 743.410156 511 L 531.003906 511 Z M 531.003906 298 " clip-rule="nonzero"/></clipPath><clipPath id="9fbede3b9a"><path d="M 637.234375 325.828125 C 689.015625 325.828125 719.078125 372.101562 713.003906 397.066406 C 708.472656 415.90625 694.628906 420.589844 684.074219 420.589844 C 679.082031 420.589844 674.8125 419.558594 672.546875 418.476562 C 657.671875 411.324219 658.289062 398.765625 661.941406 393.359375 C 662.507812 392.382812 663.28125 391.816406 663.796875 391.816406 C 663.898438 391.816406 664 391.867188 664.105469 391.917969 C 664.824219 392.433594 664.257812 393.410156 664.308594 395.058594 C 664.363281 400.359375 668.6875 405.507812 677.746094 405.507812 C 678.621094 405.507812 679.496094 405.457031 680.421875 405.351562 C 688.65625 404.527344 695.605469 391.917969 688.605469 381.828125 C 684.074219 375.34375 675.890625 372.203125 668.375 372.203125 C 666.371094 372.203125 664.363281 372.410156 662.558594 372.875 C 636.980469 379.050781 636.464844 408.390625 648.300781 424.242188 C 656.125 434.691406 668.6875 440.148438 681.398438 440.148438 C 690.40625 440.148438 699.414062 437.421875 706.828125 431.808594 C 708.78125 430.316406 709.761719 429.082031 710.6875 429.082031 C 710.894531 429.082031 711.097656 429.132812 711.253906 429.289062 C 712.539062 430.164062 710.839844 433.40625 709.246094 437.058594 C 698.128906 462.589844 673.371094 481.890625 639.605469 483.488281 C 638.417969 483.539062 637.234375 483.589844 636.105469 483.589844 C 591.015625 483.589844 557.503906 441.796875 561.160156 415.542969 C 564.195312 393.460938 580.824219 388.316406 591.835938 388.316406 C 595.234375 388.316406 598.066406 388.777344 599.816406 389.449219 C 616.285156 395.46875 615.71875 410.5 611.550781 416.316406 C 610.316406 417.910156 609.234375 418.683594 608.617188 418.683594 C 608.207031 418.683594 608 418.324219 608.101562 417.65625 C 608.359375 416.058594 608.566406 415.957031 608.359375 414.308594 C 607.742188 409.832031 603.984375 403.859375 596.519531 403.859375 C 595.027344 403.859375 593.382812 404.117188 591.582031 404.632812 C 582.316406 407.410156 578.609375 420.074219 586.792969 429.390625 C 591.527344 434.796875 599.09375 437.265625 606.148438 437.265625 C 609.082031 437.265625 611.964844 436.800781 614.433594 435.980469 C 639.242188 427.433594 637.441406 397.890625 624.058594 383.015625 C 615.207031 373.183594 603.417969 367.933594 591.835938 367.933594 C 583.394531 367.933594 575.058594 370.710938 568.109375 376.578125 C 566.460938 377.816406 565.84375 378.691406 564.96875 378.691406 C 564.761719 378.691406 564.503906 378.636719 564.25 378.535156 C 562.910156 377.917969 563.476562 376.941406 564.761719 373.800781 C 574.953125 348.9375 599.558594 327.371094 633.683594 326.035156 C 634.867188 325.980469 636.050781 325.980469 637.234375 325.980469 Z M 636.464844 298.753906 C 578.402344 299.164062 531.304688 346.519531 531.304688 404.632812 C 531.304688 463 578.816406 510.511719 637.183594 510.511719 C 695.554688 510.511719 743.113281 463 743.113281 404.632812 C 743.113281 346.519531 695.964844 299.164062 637.957031 298.753906 Z M 636.464844 298.753906 " clip-rule="nonzero"/></clipPath><clipPath id="ef65170fea"><path d="M 0.121094 0.558594 L 212.28125 0.558594 L 212.28125 212.71875 L 0.121094 212.71875 Z M 0.121094 0.558594 " clip-rule="nonzero"/></clipPath><clipPath id="753a456fab"><path d="M 106.234375 27.828125 C 158.015625 27.828125 188.078125 74.101562 182.003906 99.066406 C 177.472656 117.90625 163.628906 122.589844 153.074219 122.589844 C 148.082031 122.589844 143.8125 121.558594 141.546875 120.476562 C 126.671875 113.324219 127.289062 100.765625 130.941406 95.359375 C 131.507812 94.382812 132.28125 93.816406 132.796875 93.816406 C 132.898438 93.816406 133 93.867188 133.105469 93.917969 C 133.824219 94.433594 133.257812 95.410156 133.308594 97.058594 C 133.363281 102.359375 137.6875 107.507812 146.746094 107.507812 C 147.621094 107.507812 148.496094 107.457031 149.421875 107.351562 C 157.65625 106.527344 164.605469 93.917969 157.605469 83.828125 C 153.074219 77.34375 144.890625 74.203125 137.375 74.203125 C 135.371094 74.203125 133.363281 74.410156 131.558594 74.875 C 105.980469 81.050781 105.464844 110.390625 117.300781 126.242188 C 125.125 136.691406 137.6875 142.148438 150.398438 142.148438 C 159.40625 142.148438 168.414062 139.421875 175.828125 133.808594 C 177.78125 132.316406 178.761719 131.082031 179.6875 131.082031 C 179.894531 131.082031 180.097656 131.132812 180.253906 131.289062 C 181.539062 132.164062 179.839844 135.40625 178.246094 139.058594 C 167.128906 164.589844 142.371094 183.890625 108.605469 185.488281 C 107.417969 185.539062 106.234375 185.589844 105.105469 185.589844 C 60.015625 185.589844 26.503906 143.796875 30.160156 117.542969 C 33.195312 95.460938 49.824219 90.316406 60.835938 90.316406 C 64.234375 90.316406 67.066406 90.777344 68.816406 91.449219 C 85.285156 97.46875 84.71875 112.5 80.550781 118.316406 C 79.316406 119.910156 78.234375 120.683594 77.617188 120.683594 C 77.207031 120.683594 77 120.324219 77.101562 119.65625 C 77.359375 118.058594 77.566406 117.957031 77.359375 116.308594 C 76.742188 111.832031 72.984375 105.859375 65.519531 105.859375 C 64.027344 105.859375 62.382812 106.117188 60.582031 106.632812 C 51.316406 109.410156 47.609375 122.074219 55.792969 131.390625 C 60.527344 136.796875 68.09375 139.265625 75.148438 139.265625 C 78.082031 139.265625 80.964844 138.800781 83.433594 137.980469 C 108.242188 129.433594 106.441406 99.890625 93.058594 85.015625 C 84.207031 75.183594 72.417969 69.933594 60.835938 69.933594 C 52.394531 69.933594 44.058594 72.710938 37.109375 78.578125 C 35.460938 79.816406 34.84375 80.691406 33.96875 80.691406 C 33.761719 80.691406 33.503906 80.636719 33.25 80.535156 C 31.910156 79.917969 32.476562 78.941406 33.761719 75.800781 C 43.953125 50.9375 68.558594 29.371094 102.683594 28.035156 C 103.867188 27.980469 105.050781 27.980469 106.234375 27.980469 Z M 105.464844 0.753906 C 47.402344 1.164062 0.304688 48.519531 0.304688 106.632812 C 0.304688 165 47.816406 212.511719 106.183594 212.511719 C 164.554688 212.511719 212.113281 165 212.113281 106.632812 C 212.113281 48.519531 164.964844 1.164062 106.957031 0.753906 Z M 105.464844 0.753906 " clip-rule="nonzero"/></clipPath><clipPath id="8fc29968e1"><rect x="0" width="213" y="0" height="213"/></clipPath><clipPath id="ae98415786"><path d="M 77 299 L 283 299 L 283 512 L 77 512 Z M 77 299 " clip-rule="nonzero"/></clipPath><clipPath id="5b2f5f6ecc"><path d="M 180.214844 511.230469 L 181.191406 511.230469 C 192.566406 511.230469 203.582031 509.277344 214.03125 505.519531 C 224.789062 501.605469 234.824219 495.996094 244.039062 488.789062 C 255.414062 479.988281 263.03125 471.390625 269.46875 460.066406 C 269.777344 459.605469 272.039062 455.589844 272.554688 451.007812 C 272.914062 447.867188 272.554688 442.105469 266.277344 438.550781 C 264.269531 437.675781 262.363281 437.316406 260.613281 437.316406 C 256.804688 437.316406 253.664062 439.066406 251.503906 440.867188 C 250.011719 442.15625 248.519531 443.75 247.023438 445.808594 C 246.148438 446.992188 245.429688 448.074219 244.964844 448.949219 L 244.453125 449.722656 C 235.546875 463.207031 223.140625 472.988281 207.648438 478.804688 C 199.363281 482.046875 190.507812 483.695312 181.191406 483.695312 L 180.164062 483.695312 C 157.15625 483.695312 138.160156 475.355469 123.644531 458.988281 C 114.949219 449.515625 109.183594 438.347656 106.507812 425.890625 C 106.453125 425.734375 105.167969 420.175781 104.5 412.351562 C 103.933594 405.042969 103.777344 394.234375 106.660156 384.09375 C 109.800781 372.71875 115.566406 362.269531 123.851562 353.109375 C 131.519531 344.511719 140.683594 337.871094 151.183594 333.34375 C 160.808594 329.171875 171.105469 327.011719 181.757812 327.011719 C 199.671875 327.269531 215.523438 332.878906 228.90625 343.792969 C 240.332031 353.109375 248.363281 364.84375 252.636719 378.742188 C 253.097656 380.078125 253.5625 381.675781 253.664062 383.375 C 253.820312 386 252.839844 387.957031 250.78125 389.292969 L 250.421875 389.550781 L 249.957031 389.707031 C 249.238281 389.960938 248.363281 390.167969 247.128906 390.269531 C 246.203125 390.375 245.273438 390.375 244.554688 390.375 C 243.9375 390.375 243.472656 390.324219 243.371094 390.324219 L 143.207031 390.324219 C 142.792969 390.269531 142.382812 390.269531 141.917969 390.269531 C 141.558594 390.269531 141.199219 390.324219 140.734375 390.324219 C 139.601562 390.375 137.441406 390.632812 135.175781 391.507812 C 131.46875 392.894531 126.992188 396.242188 126.992188 404.273438 C 126.992188 411.582031 131.417969 414.875 135.125 416.367188 C 137.390625 417.292969 139.5 417.601562 140.582031 417.707031 C 141.867188 417.859375 142.792969 417.859375 143 417.859375 L 259.6875 417.859375 C 260.714844 417.859375 263.085938 417.808594 265.8125 417.292969 C 270.652344 416.472656 274.460938 414.722656 276.878906 412.199219 C 281.976562 407 282.851562 398.96875 282.59375 395.417969 C 280.738281 369.011719 271.679688 347.085938 255.621094 330.253906 C 235.804688 309.769531 211.199219 299.371094 182.53125 299.371094 L 181.550781 299.371094 C 152.007812 299.628906 126.890625 310.4375 106.96875 331.488281 C 87.101562 352.542969 77.167969 377.917969 77.269531 406.949219 C 77.167969 420.949219 79.742188 434.484375 84.886719 447.097656 C 90.035156 459.707031 97.5 471.03125 106.917969 480.65625 C 116.441406 490.332031 127.710938 498.003906 140.324219 503.40625 C 152.675781 508.605469 165.800781 511.230469 179.390625 511.230469 Z M 180.214844 511.230469 " clip-rule="nonzero"/></clipPath><clipPath id="11c4cf31c1"><path d="M 0.0390625 0.28125 L 205.960938 0.28125 L 205.960938 212.441406 L 0.0390625 212.441406 Z M 0.0390625 0.28125 " clip-rule="nonzero"/></clipPath><clipPath id="56e7ce424b"><path d="M 103.214844 212.230469 L 104.191406 212.230469 C 115.566406 212.230469 126.582031 210.277344 137.03125 206.519531 C 147.789062 202.605469 157.824219 196.996094 167.039062 189.789062 C 178.414062 180.988281 186.03125 172.390625 192.46875 161.066406 C 192.777344 160.605469 195.039062 156.589844 195.554688 152.007812 C 195.914062 148.867188 195.554688 143.105469 189.277344 139.550781 C 187.269531 138.675781 185.363281 138.316406 183.613281 138.316406 C 179.804688 138.316406 176.664062 140.066406 174.503906 141.867188 C 173.011719 143.15625 171.519531 144.75 170.023438 146.808594 C 169.148438 147.992188 168.429688 149.074219 167.964844 149.949219 L 167.453125 150.722656 C 158.546875 164.207031 146.140625 173.988281 130.648438 179.804688 C 122.363281 183.046875 113.507812 184.695312 104.191406 184.695312 L 103.164062 184.695312 C 80.15625 184.695312 61.160156 176.355469 46.644531 159.988281 C 37.949219 150.515625 32.183594 139.347656 29.507812 126.890625 C 29.453125 126.734375 28.167969 121.175781 27.5 113.351562 C 26.933594 106.042969 26.777344 95.234375 29.660156 85.09375 C 32.800781 73.71875 38.566406 63.269531 46.851562 54.109375 C 54.519531 45.511719 63.683594 38.871094 74.183594 34.34375 C 83.808594 30.171875 94.105469 28.011719 104.757812 28.011719 C 122.671875 28.269531 138.523438 33.878906 151.90625 44.792969 C 163.332031 54.109375 171.363281 65.84375 175.636719 79.742188 C 176.097656 81.078125 176.5625 82.675781 176.664062 84.375 C 176.820312 87 175.839844 88.957031 173.78125 90.292969 L 173.421875 90.550781 L 172.957031 90.707031 C 172.238281 90.960938 171.363281 91.167969 170.128906 91.269531 C 169.203125 91.375 168.273438 91.375 167.554688 91.375 C 166.9375 91.375 166.472656 91.324219 166.371094 91.324219 L 66.207031 91.324219 C 65.792969 91.269531 65.382812 91.269531 64.917969 91.269531 C 64.558594 91.269531 64.199219 91.324219 63.734375 91.324219 C 62.601562 91.375 60.441406 91.632812 58.175781 92.507812 C 54.46875 93.894531 49.992188 97.242188 49.992188 105.273438 C 49.992188 112.582031 54.417969 115.875 58.125 117.367188 C 60.390625 118.292969 62.5 118.601562 63.582031 118.707031 C 64.867188 118.859375 65.792969 118.859375 66 118.859375 L 182.6875 118.859375 C 183.714844 118.859375 186.085938 118.808594 188.8125 118.292969 C 193.652344 117.472656 197.460938 115.722656 199.878906 113.199219 C 204.976562 108 205.851562 99.96875 205.59375 96.417969 C 203.738281 70.011719 194.679688 48.085938 178.621094 31.253906 C 158.804688 10.769531 134.199219 0.371094 105.53125 0.371094 L 104.550781 0.371094 C 75.007812 0.628906 49.890625 11.4375 29.96875 32.488281 C 10.101562 53.542969 0.167969 78.917969 0.269531 107.949219 C 0.167969 121.949219 2.742188 135.484375 7.886719 148.097656 C 13.035156 160.707031 20.5 172.03125 29.917969 181.65625 C 39.441406 191.332031 50.710938 199.003906 63.324219 204.40625 C 75.675781 209.605469 88.800781 212.230469 102.390625 212.230469 Z M 103.214844 212.230469 " clip-rule="nonzero"/></clipPath><clipPath id="1c86926b57"><rect x="0" width="206" y="0" height="213"/></clipPath><clipPath id="e30e3e293e"><path d="M 306 304 L 506 304 L 506 507 L 306 507 Z M 306 304 " clip-rule="nonzero"/></clipPath><clipPath id="d3eb17c45b"><path d="M 405.714844 506.1875 C 392.949219 506.1875 387.285156 495.222656 385.433594 490.488281 L 307.402344 323.511719 C 307.144531 322.945312 306.9375 322.378906 306.734375 321.8125 C 306.371094 320.527344 306.167969 319.238281 306.167969 317.902344 C 306.167969 310.539062 312.136719 304.570312 319.496094 304.570312 C 325.984375 304.570312 330.925781 306.679688 335.25 317.078125 L 405.609375 467.6875 L 477.003906 314.503906 C 481.738281 305.703125 487.039062 304.519531 491.828125 304.671875 C 499.1875 304.878906 505.722656 310.847656 505.722656 318.210938 C 505.722656 320.113281 505.3125 322.019531 504.539062 323.71875 L 424.347656 494.296875 C 421.515625 500.164062 417.089844 506.238281 405.714844 506.238281 " clip-rule="nonzero"/></clipPath><clipPath id="683e434920"><path d="M 0 0.320312 L 199.921875 0.320312 L 199.921875 202.398438 L 0 202.398438 Z M 0 0.320312 " clip-rule="nonzero"/></clipPath><clipPath id="eaf202e4b9"><path d="M 99.714844 202.1875 C 86.949219 202.1875 81.285156 191.222656 79.433594 186.488281 L 1.402344 19.511719 C 1.144531 18.945312 0.9375 18.378906 0.734375 17.8125 C 0.371094 16.527344 0.167969 15.238281 0.167969 13.902344 C 0.167969 6.539062 6.136719 0.570312 13.496094 0.570312 C 19.984375 0.570312 24.925781 2.679688 29.25 13.078125 L 99.609375 163.6875 L 171.003906 10.503906 C 175.738281 1.703125 181.039062 0.519531 185.828125 0.671875 C 193.1875 0.878906 199.722656 6.847656 199.722656 14.210938 C 199.722656 16.113281 199.3125 18.019531 198.539062 19.71875 L 118.347656 190.296875 C 115.515625 196.164062 111.089844 202.238281 99.714844 202.238281 " clip-rule="nonzero"/></clipPath><clipPath id="ab02647c86"><rect x="0" width="200" y="0" height="203"/></clipPath><clipPath id="a1b3ae9bb0"><path d="M 1157 299 L 1363 299 L 1363 511.238281 L 1157 511.238281 Z M 1157 299 " clip-rule="nonzero"/></clipPath><clipPath id="8114c8981e"><path d="M 1327.609375 382.449219 C 1327.609375 382.5 1327.558594 382.5 1327.558594 382.5 C 1327.558594 382.5 1327.609375 382.5 1327.609375 382.449219 M 1260.386719 511.230469 L 1261.414062 511.230469 C 1272.738281 511.230469 1283.703125 509.328125 1294.152344 505.570312 C 1304.859375 501.65625 1315 496.046875 1324.109375 488.890625 C 1335.535156 480.039062 1343.101562 471.441406 1349.535156 460.117188 C 1350.152344 459.089844 1352.109375 455.28125 1352.625 451.007812 C 1352.984375 447.921875 1352.625 442.105469 1346.292969 438.550781 C 1344.285156 437.675781 1342.382812 437.265625 1340.632812 437.265625 C 1336.824219 437.265625 1333.683594 439.015625 1331.519531 440.816406 C 1329.925781 442.105469 1328.484375 443.75 1327.042969 445.707031 C 1326.167969 446.941406 1325.5 448.023438 1324.984375 448.847656 L 1324.46875 449.617188 C 1315.511719 463.105469 1303.109375 472.882812 1287.667969 478.753906 C 1279.429688 481.996094 1270.476562 483.640625 1261.160156 483.640625 L 1260.179688 483.640625 C 1237.222656 483.640625 1218.179688 475.304688 1203.664062 458.933594 C 1194.964844 449.464844 1189.199219 438.292969 1186.523438 425.839844 C 1186.472656 425.683594 1185.132812 420.175781 1184.515625 412.300781 C 1183.898438 404.941406 1183.847656 394.082031 1186.730469 383.992188 C 1189.816406 372.667969 1195.582031 362.21875 1203.871094 353.003906 C 1211.589844 344.410156 1220.753906 337.71875 1231.203125 333.238281 C 1240.828125 329.070312 1251.121094 326.960938 1261.777344 326.960938 C 1279.6875 327.21875 1295.492188 332.828125 1308.875 343.738281 C 1320.300781 353.003906 1328.328125 364.792969 1332.652344 378.691406 C 1333.117188 380.234375 1333.527344 381.726562 1333.683594 383.269531 C 1333.835938 385.894531 1332.859375 387.902344 1330.851562 389.242188 L 1330.386719 389.550781 L 1329.875 389.703125 C 1329.101562 389.960938 1328.175781 390.117188 1327.09375 390.21875 C 1326.167969 390.324219 1325.242188 390.324219 1324.519531 390.324219 C 1323.902344 390.324219 1323.441406 390.269531 1323.183594 390.269531 L 1223.378906 390.269531 C 1222.964844 390.269531 1222.554688 390.21875 1222.039062 390.21875 C 1221.679688 390.21875 1221.320312 390.21875 1220.855469 390.269531 C 1219.671875 390.324219 1217.613281 390.527344 1215.296875 391.402344 C 1211.589844 392.792969 1207.164062 396.191406 1207.164062 404.167969 C 1207.164062 411.476562 1211.589844 414.824219 1215.296875 416.265625 C 1217.511719 417.140625 1219.464844 417.5 1220.753906 417.65625 C 1222.039062 417.808594 1222.964844 417.808594 1223.222656 417.808594 L 1339.242188 417.808594 C 1339.242188 417.808594 1339.550781 417.808594 1339.910156 417.808594 C 1340.992188 417.808594 1343.308594 417.757812 1345.984375 417.242188 C 1350.875 416.367188 1354.582031 414.667969 1357.050781 412.148438 C 1362.148438 406.949219 1363.023438 398.917969 1362.765625 395.367188 C 1360.964844 368.960938 1351.851562 347.035156 1335.742188 330.203125 C 1315.976562 309.71875 1291.371094 299.320312 1262.652344 299.320312 L 1261.726562 299.320312 C 1232.128906 299.578125 1207.0625 310.386719 1187.140625 331.4375 C 1167.324219 352.4375 1157.390625 377.816406 1157.492188 406.898438 C 1157.339844 420.898438 1159.964844 434.433594 1165.113281 447.046875 C 1170.257812 459.65625 1177.671875 470.929688 1187.140625 480.605469 C 1196.664062 490.28125 1207.886719 497.953125 1220.546875 503.355469 C 1232.847656 508.554688 1245.972656 511.179688 1259.511719 511.179688 Z M 1260.386719 511.230469 " clip-rule="nonzero"/></clipPath><clipPath id="405771f636"><path d="M 0.28125 0.28125 L 206 0.28125 L 206 212.238281 L 0.28125 212.238281 Z M 0.28125 0.28125 " clip-rule="nonzero"/></clipPath><clipPath id="d6204fefa1"><path d="M 170.609375 83.449219 C 170.609375 83.5 170.558594 83.5 170.558594 83.5 C 170.558594 83.5 170.609375 83.5 170.609375 83.449219 M 103.386719 212.230469 L 104.414062 212.230469 C 115.738281 212.230469 126.703125 210.328125 137.152344 206.570312 C 147.859375 202.65625 158 197.046875 167.109375 189.890625 C 178.535156 181.039062 186.101562 172.441406 192.535156 161.117188 C 193.152344 160.089844 195.109375 156.28125 195.625 152.007812 C 195.984375 148.921875 195.625 143.105469 189.292969 139.550781 C 187.285156 138.675781 185.382812 138.265625 183.632812 138.265625 C 179.824219 138.265625 176.683594 140.015625 174.519531 141.816406 C 172.925781 143.105469 171.484375 144.75 170.042969 146.707031 C 169.167969 147.941406 168.5 149.023438 167.984375 149.847656 L 167.46875 150.617188 C 158.511719 164.105469 146.109375 173.882812 130.667969 179.753906 C 122.429688 182.996094 113.476562 184.640625 104.160156 184.640625 L 103.179688 184.640625 C 80.222656 184.640625 61.179688 176.304688 46.664062 159.933594 C 37.964844 150.464844 32.199219 139.292969 29.523438 126.839844 C 29.472656 126.683594 28.132812 121.175781 27.515625 113.300781 C 26.898438 105.941406 26.847656 95.082031 29.730469 84.992188 C 32.816406 73.667969 38.582031 63.21875 46.871094 54.003906 C 54.589844 45.410156 63.753906 38.71875 74.203125 34.238281 C 83.828125 30.070312 94.121094 27.960938 104.777344 27.960938 C 122.6875 28.21875 138.492188 33.828125 151.875 44.738281 C 163.300781 54.003906 171.328125 65.792969 175.652344 79.691406 C 176.117188 81.234375 176.527344 82.726562 176.683594 84.269531 C 176.835938 86.894531 175.859375 88.902344 173.851562 90.242188 L 173.386719 90.550781 L 172.875 90.703125 C 172.101562 90.960938 171.175781 91.117188 170.09375 91.21875 C 169.167969 91.324219 168.242188 91.324219 167.519531 91.324219 C 166.902344 91.324219 166.441406 91.269531 166.183594 91.269531 L 66.378906 91.269531 C 65.964844 91.269531 65.554688 91.21875 65.039062 91.21875 C 64.679688 91.21875 64.320312 91.21875 63.855469 91.269531 C 62.671875 91.324219 60.613281 91.527344 58.296875 92.402344 C 54.589844 93.792969 50.164062 97.191406 50.164062 105.167969 C 50.164062 112.476562 54.589844 115.824219 58.296875 117.265625 C 60.511719 118.140625 62.464844 118.5 63.753906 118.65625 C 65.039062 118.808594 65.964844 118.808594 66.222656 118.808594 L 182.242188 118.808594 C 182.242188 118.808594 182.550781 118.808594 182.910156 118.808594 C 183.992188 118.808594 186.308594 118.757812 188.984375 118.242188 C 193.875 117.367188 197.582031 115.667969 200.050781 113.148438 C 205.148438 107.949219 206.023438 99.917969 205.765625 96.367188 C 203.964844 69.960938 194.851562 48.035156 178.742188 31.203125 C 158.976562 10.71875 134.371094 0.320312 105.652344 0.320312 L 104.726562 0.320312 C 75.128906 0.578125 50.0625 11.386719 30.140625 32.4375 C 10.324219 53.4375 0.390625 78.816406 0.492188 107.898438 C 0.339844 121.898438 2.964844 135.433594 8.113281 148.046875 C 13.257812 160.65625 20.671875 171.929688 30.140625 181.605469 C 39.664062 191.28125 50.886719 198.953125 63.546875 204.355469 C 75.847656 209.554688 88.972656 212.179688 102.511719 212.179688 Z M 103.386719 212.230469 " clip-rule="nonzero"/></clipPath><clipPath id="299b184965"><rect x="0" width="206" y="0" height="213"/></clipPath><clipPath id="1c606425ca"><path d="M 933.296875 304.492188 L 1133 304.492188 L 1133 507 L 933.296875 507 Z M 933.296875 304.492188 " clip-rule="nonzero"/></clipPath><clipPath id="35810f0560"><path d="M 1033.035156 506.1875 C 1020.269531 506.1875 1014.554688 495.222656 1012.753906 490.488281 L 934.722656 323.511719 C 934.414062 322.945312 934.207031 322.378906 934.050781 321.8125 C 933.691406 320.527344 933.488281 319.238281 933.488281 317.902344 C 933.488281 310.539062 939.457031 304.519531 946.816406 304.519531 C 953.355469 304.519531 958.246094 306.628906 962.621094 317.027344 L 1032.878906 467.683594 L 1104.324219 314.453125 C 1109.058594 305.652344 1114.359375 304.46875 1119.148438 304.621094 C 1126.507812 304.828125 1132.992188 310.796875 1132.992188 318.160156 C 1132.992188 320.0625 1132.632812 321.96875 1131.808594 323.667969 L 1051.667969 494.296875 C 1048.835938 500.164062 1044.359375 506.238281 1032.980469 506.238281 " clip-rule="nonzero"/></clipPath><clipPath id="fec297e40c"><path d="M 0.359375 0.492188 L 200 0.492188 L 200 202.398438 L 0.359375 202.398438 Z M 0.359375 0.492188 " clip-rule="nonzero"/></clipPath><clipPath id="2c70a75dfc"><path d="M 100.035156 202.1875 C 87.269531 202.1875 81.554688 191.222656 79.753906 186.488281 L 1.722656 19.511719 C 1.414062 18.945312 1.207031 18.378906 1.050781 17.8125 C 0.691406 16.527344 0.488281 15.238281 0.488281 13.902344 C 0.488281 6.539062 6.457031 0.519531 13.816406 0.519531 C 20.355469 0.519531 25.246094 2.628906 29.621094 13.027344 L 99.878906 163.683594 L 171.324219 10.453125 C 176.058594 1.652344 181.359375 0.46875 186.148438 0.621094 C 193.507812 0.828125 199.992188 6.796875 199.992188 14.160156 C 199.992188 16.0625 199.632812 17.96875 198.808594 19.667969 L 118.667969 190.296875 C 115.835938 196.164062 111.359375 202.238281 99.980469 202.238281 " clip-rule="nonzero"/></clipPath><clipPath id="6665044910"><rect x="0" width="200" y="0" height="203"/></clipPath><clipPath id="5dfa554e19"><path d="M 795.46875 303.464844 L 953.871094 303.464844 L 953.871094 507 L 795.46875 507 Z M 795.46875 303.464844 " clip-rule="nonzero"/></clipPath><clipPath id="6cd8d622ec"><path d="M 814.121094 506.648438 C 812.988281 506.648438 811.238281 506.597656 809.234375 506.289062 C 804.546875 505.519531 801.046875 503.921875 798.886719 501.503906 C 797.136719 499.496094 796.003906 496.253906 795.644531 492.1875 C 795.335938 489.148438 795.59375 486.628906 795.59375 486.574219 L 795.59375 317.335938 C 795.953125 309.613281 801.820312 303.644531 809.386719 303.644531 C 816.800781 303.644531 822.820312 309.460938 823.179688 316.871094 L 823.179688 478.648438 L 826.886719 478.855469 C 839.5 479.0625 938.429688 479.113281 939.40625 479.113281 C 946.972656 479.164062 953.097656 485.339844 953.097656 492.90625 C 953.097656 500.472656 946.972656 506.648438 939.355469 506.703125 L 815.511719 506.703125 C 815.050781 506.703125 814.636719 506.753906 814.121094 506.753906 " clip-rule="nonzero"/></clipPath><clipPath id="fa782b7eb0"><path d="M 0.46875 0.601562 L 158.28125 0.601562 L 158.28125 203.878906 L 0.46875 203.878906 Z M 0.46875 0.601562 " clip-rule="nonzero"/></clipPath><clipPath id="fcbed17b73"><path d="M 19.121094 203.648438 C 17.988281 203.648438 16.238281 203.597656 14.234375 203.289062 C 9.546875 202.519531 6.046875 200.921875 3.886719 198.503906 C 2.136719 196.496094 1.003906 193.253906 0.644531 189.1875 C 0.335938 186.148438 0.59375 183.628906 0.59375 183.574219 L 0.59375 14.335938 C 0.953125 6.613281 6.820312 0.644531 14.386719 0.644531 C 21.800781 0.644531 27.820312 6.460938 28.179688 13.871094 L 28.179688 175.648438 L 31.886719 175.855469 C 44.5 176.0625 143.429688 176.113281 144.40625 176.113281 C 151.972656 176.164062 158.097656 182.339844 158.097656 189.90625 C 158.097656 197.472656 151.972656 203.648438 144.355469 203.703125 L 20.511719 203.703125 C 20.050781 203.703125 19.636719 203.753906 19.121094 203.753906 " clip-rule="nonzero"/></clipPath><clipPath id="0e22eae6fa"><rect x="0" width="159" y="0" height="204"/></clipPath></defs><g clip-path="url(#cfaa5e9a3c)"><g clip-path="url(#9fbede3b9a)"><g transform="matrix(1, 0, 0, 1, 531, 298)"><g clip-path="url(#8fc29968e1)"><g clip-path="url(#ef65170fea)"><g clip-path="url(#753a456fab)"><rect x="-847.8" width="2073.6" fill="#575545" height="1166.39999" y="-476.199998" fill-opacity="1"/></g></g></g></g></g></g><g clip-path="url(#ae98415786)"><g clip-path="url(#5b2f5f6ecc)"><g transform="matrix(1, 0, 0, 1, 77, 299)"><g clip-path="url(#1c86926b57)"><g clip-path="url(#11c4cf31c1)"><g clip-path="url(#56e7ce424b)"><rect x="-393.8" width="2073.6" fill="#575545" height="1166.39999" y="-477.199998" fill-opacity="1"/></g></g></g></g></g></g><g clip-path="url(#e30e3e293e)"><g clip-path="url(#d3eb17c45b)"><g transform="matrix(1, 0, 0, 1, 306, 304)"><g clip-path="url(#ab02647c86)"><g clip-path="url(#683e434920)"><g clip-path="url(#eaf202e4b9)"><rect x="-622.8" width="2073.6" fill="#575545" height="1166.39999" y="-482.199998" fill-opacity="1"/></g></g></g></g></g></g><g clip-path="url(#a1b3ae9bb0)"><g clip-path="url(#8114c8981e)"><g transform="matrix(1, 0, 0, 1, 1157, 299)"><g clip-path="url(#299b184965)"><g clip-path="url(#405771f636)"><g clip-path="url(#d6204fefa1)"><rect x="-1473.8" width="2073.6" fill="#575545" height="1166.39999" y="-477.199998" fill-opacity="1"/></g></g></g></g></g></g><g clip-path="url(#1c606425ca)"><g clip-path="url(#35810f0560)"><g transform="matrix(1, 0, 0, 1, 933, 304)"><g clip-path="url(#6665044910)"><g clip-path="url(#fec297e40c)"><g clip-path="url(#2c70a75dfc)"><rect x="-1249.8" width="2073.6" fill="#575545" height="1166.39999" y="-482.199998" fill-opacity="1"/></g></g></g></g></g></g><g clip-path="url(#5dfa554e19)"><g clip-path="url(#6cd8d622ec)"><g transform="matrix(1, 0, 0, 1, 795, 303)"><g clip-path="url(#0e22eae6fa)"><g clip-path="url(#fa782b7eb0)"><g clip-path="url(#fcbed17b73)"><rect x="-1111.8" width="2073.6" fill="#575545" height="1166.39999" y="-481.199998" fill-opacity="1"/></g></g></g></g></g></g></svg>