<?xml version="1.0" encoding="UTF-8"?>
<svg id="Layer_1" data-name="Layer 1" xmlns="http://www.w3.org/2000/svg" viewBox="0 0 200 60">
  <defs>
    <style>
      .cls-1 {
        fill: #231f20;
      }
    </style>
  </defs>
  <g>
    <g>
      <rect class="cls-1" x="25.99" y="47.82" width="1.13" height="7.9"/>
      <polygon class="cls-1" points="37.7 47.82 37.7 53.95 32.37 47.82 31.45 47.82 31.45 55.71 32.52 55.71 32.52 49.63 37.8 55.71 38.77 55.71 38.77 47.82 37.7 47.82"/>
    </g>
    <path class="cls-1" d="M44.96,52.41l-.86-.52c-.54-.33-.92-.65-1.15-.97-.23-.32-.34-.69-.34-1.1,0-.62.22-1.13.65-1.52.43-.39.99-.58,1.68-.58s1.26.19,1.81.56v1.28c-.57-.55-1.18-.82-1.84-.82-.37,0-.67.09-.91.26-.24.17-.36.39-.36.66,0,.24.09.46.26.66.18.21.46.42.84.65l.86.51c.96.58,1.45,1.31,1.45,2.2,0,.63-.21,1.15-.64,1.54-.42.4-.98.59-1.65.59-.78,0-1.49-.24-2.13-.72v-1.44c.61.77,1.32,1.16,2.12,1.16.35,0,.65-.1.89-.3.23-.2.35-.45.35-.74,0-.48-.35-.94-1.04-1.37"/>
    <path class="cls-1" d="M50.8,55.71v-7.91h2.5c.75,0,1.35.2,1.8.61.45.41.67.95.67,1.64,0,.46-.12.87-.34,1.22-.23.35-.54.61-.94.77-.4.16-.97.24-1.72.24h-.84v3.43h-1.14ZM53.1,48.81h-1.17v2.47h1.24c.46,0,.81-.11,1.06-.32.25-.22.37-.53.37-.93,0-.81-.5-1.22-1.5-1.22"/>
    <rect class="cls-1" x="59.32" y="47.82" width="1.13" height="7.9"/>
    <path class="cls-1" d="M64.79,55.71v-7.9h1.98c.8,0,1.43.2,1.9.59.47.4.71.93.71,1.61,0,.46-.12.86-.35,1.19-.23.33-.56.59-.99.75.25.17.5.39.74.68.24.29.58.79,1.02,1.5.28.45.5.79.66,1.01l.42.57h-1.34l-.34-.52s-.03-.05-.07-.1l-.22-.31-.35-.58-.38-.62c-.23-.32-.45-.58-.64-.77-.19-.19-.37-.33-.53-.41-.16-.09-.42-.13-.79-.13h-.29v3.44h-1.13ZM66.26,48.78h-.34v2.49h.43c.57,0,.97-.05,1.18-.15.21-.1.38-.25.5-.44.12-.2.18-.42.18-.68s-.07-.48-.2-.68c-.13-.2-.32-.34-.56-.43-.24-.08-.64-.12-1.19-.12"/>
    <polygon class="cls-1" points="74.29 47.82 78.77 47.82 78.77 48.82 75.42 48.82 75.42 51.23 78.66 51.23 78.66 52.24 75.42 52.24 75.42 54.7 78.88 54.7 78.88 55.7 74.29 55.7 74.29 47.82"/>
    <path class="cls-1" d="M82.64,55.7v-7.89h2.66c1.07,0,1.92.16,2.55.48.63.32,1.12.8,1.49,1.42.37.63.55,1.31.55,2.05,0,.53-.1,1.03-.31,1.52-.2.48-.49.91-.87,1.27-.38.38-.83.66-1.34.85-.3.12-.57.2-.82.23-.25.04-.72.06-1.43.06h-2.5ZM85.19,48.82h-1.41v5.87h1.45c.57,0,1-.04,1.32-.12.31-.08.57-.18.78-.29.21-.12.4-.27.57-.44.56-.56.84-1.28.84-2.14s-.29-1.54-.86-2.08c-.21-.2-.45-.36-.73-.49-.27-.13-.53-.21-.78-.25-.25-.04-.64-.06-1.18-.06"/>
    <path class="cls-1" d="M99.64,47.82h1.13v7.8c0,.73-.07,1.26-.22,1.61-.15.35-.39.63-.72.84-.33.21-.73.31-1.2.31-.07,0-.19-.01-.37-.03l-.21-1.05h.29c.32,0,.57-.04.74-.12.17-.08.31-.22.41-.42.1-.2.15-.62.15-1.27v-7.67Z"/>
    <polygon class="cls-1" points="105.07 47.82 109.55 47.82 109.55 48.82 106.2 48.82 106.2 51.23 109.43 51.23 109.43 52.24 106.2 52.24 106.2 54.7 109.65 54.7 109.65 55.7 105.07 55.7 105.07 47.82"/>
    <polygon class="cls-1" points="123.47 47.82 124.6 47.82 121.4 55.75 121.15 55.75 118.57 49.32 115.96 55.75 115.72 55.75 112.54 47.82 113.68 47.82 115.85 53.26 118.04 47.82 119.11 47.82 121.31 53.26 123.47 47.82"/>
    <polygon class="cls-1" points="128.02 47.82 132.5 47.82 132.5 48.82 129.15 48.82 129.15 51.23 132.39 51.23 132.39 52.24 129.15 52.24 129.15 54.7 132.6 54.7 132.6 55.7 128.02 55.7 128.02 47.82"/>
    <polygon class="cls-1" points="136.36 47.82 137.49 47.82 137.49 54.68 141.04 54.68 141.04 55.71 136.36 55.71 136.36 47.82"/>
    <polygon class="cls-1" points="144.58 47.82 145.71 47.82 145.71 54.68 149.27 54.68 149.27 55.71 144.58 55.71 144.58 47.82"/>
    <polygon class="cls-1" points="152.8 47.82 157.28 47.82 157.28 48.82 153.94 48.82 153.94 51.23 157.17 51.23 157.17 52.24 153.94 52.24 153.94 54.7 157.39 54.7 157.39 55.7 152.8 55.7 152.8 47.82"/>
    <path class="cls-1" d="M161.18,55.71v-7.9h1.98c.8,0,1.43.2,1.9.59.47.4.71.93.71,1.61,0,.46-.12.86-.35,1.19-.23.33-.56.59-.99.75.25.17.5.39.74.68.24.29.58.79,1.02,1.5.28.45.5.79.66,1.01l.42.57h-1.34l-.35-.52s-.03-.05-.07-.1l-.22-.31-.35-.58-.38-.62c-.23-.32-.45-.58-.64-.77-.19-.19-.37-.33-.53-.41-.16-.09-.42-.13-.79-.13h-.29v3.44h-1.13ZM162.65,48.78h-.34v2.49h.43c.57,0,.97-.05,1.18-.15.21-.1.38-.25.5-.44.12-.2.18-.42.18-.68s-.07-.48-.2-.68c-.13-.2-.32-.34-.56-.43-.24-.08-.63-.12-1.19-.12"/>
    <polygon class="cls-1" points="174.28 47.82 175.65 47.82 172.73 51.54 172.73 55.71 171.57 55.71 171.57 51.54 168.65 47.82 170.02 47.82 172.13 50.54 174.28 47.82"/>
  </g>
  <g>
    <path class="cls-1" d="M88.36,4.33c-8.79,0-15.94,7.15-15.94,15.95s7.15,15.94,15.94,15.94,15.95-7.15,15.95-15.94-7.16-15.95-15.95-15.95M93.68,22.35c-2.24-1.08-2.15-2.96-1.6-3.78.11-.18.26-.27.32-.22.11.08.02.22.03.47,0,.87.79,1.72,2.43,1.55,1.24-.13,2.29-2.02,1.23-3.54-.86-1.24-2.61-1.66-3.92-1.35-3.85.93-3.93,5.35-2.15,7.74,2.01,2.69,6.11,3.18,8.81,1.14.36-.27.5-.49.67-.39.2.13-.07.62-.31,1.17-1.68,3.84-5.4,6.75-10.49,6.99-7.06.34-12.38-6.18-11.81-10.24.6-4.34,4.7-4.34,5.82-3.93,2.48.91,2.39,3.17,1.77,4.04-.32.42-.56.44-.52.2.04-.24.07-.26.04-.51-.11-.81-.9-1.95-2.53-1.46-1.4.42-1.95,2.32-.72,3.73,1.01,1.15,2.89,1.43,4.17.99,3.74-1.28,3.47-5.74,1.45-7.98-2.31-2.56-5.94-3.05-8.42-.97-.31.23-.38.38-.58.29-.2-.09-.11-.24.08-.71,1.54-3.74,5.24-6.99,10.38-7.19,8.12-.33,12.88,6.87,11.95,10.71-1.01,4.17-5.03,3.73-6.09,3.22"/>
    <path class="cls-1" d="M19.54,36.32h.14c1.71,0,3.37-.29,4.94-.86,1.62-.59,3.13-1.44,4.52-2.52,1.71-1.33,2.86-2.62,3.82-4.33.04-.07.39-.67.46-1.37.05-.47,0-1.34-.95-1.88-.31-.13-.59-.19-.85-.19-.58,0-1.05.26-1.38.54-.23.19-.45.43-.68.74-.13.18-.24.34-.31.47l-.08.12c-1.34,2.03-3.21,3.5-5.54,4.38-1.24.49-2.58.73-3.98.73h-.16c-3.46,0-6.33-1.25-8.51-3.72-1.31-1.43-2.18-3.11-2.58-4.98,0-.02-.2-.86-.3-2.04-.09-1.1-.11-2.73.33-4.26.47-1.71,1.34-3.28,2.59-4.67,1.15-1.29,2.54-2.29,4.11-2.98,1.45-.63,3-.95,4.61-.95,2.7.04,5.08.89,7.1,2.53,1.72,1.4,2.93,3.17,3.57,5.26.07.2.14.44.15.7.02.4-.12.69-.44.89l-.06.04-.07.02c-.11.04-.24.07-.43.09-.14.01-.28.02-.38.02-.09,0-.16,0-.18,0h-15.06c-.06,0-.13,0-.2,0-.05,0-.11,0-.18,0-.17.01-.49.04-.84.18-.56.21-1.23.72-1.23,1.92,0,1.1.67,1.6,1.22,1.83.34.14.66.19.82.21.2.02.33.03.37.03h17.56c.16,0,.51,0,.92-.08.72-.13,1.3-.39,1.66-.77.76-.78.9-1.99.86-2.53-.28-3.98-1.64-7.28-4.06-9.81-2.99-3.09-6.69-4.65-11.01-4.65h-.15c-4.45.04-8.23,1.67-11.23,4.84-2.98,3.16-4.48,6.98-4.46,11.36-.02,2.11.37,4.14,1.15,6.04.78,1.9,1.9,3.6,3.32,5.06,1.44,1.45,3.13,2.61,5.03,3.42,1.86.78,3.84,1.18,5.88,1.18h.13Z"/>
    <path class="cls-1" d="M182.19,36.32h.16c1.7,0,3.36-.29,4.93-.85,1.61-.59,3.14-1.44,4.51-2.51,1.72-1.33,2.86-2.63,3.83-4.33.09-.16.39-.72.46-1.37.05-.47,0-1.34-.95-1.87-.3-.13-.59-.19-.85-.19-.57,0-1.04.27-1.37.54-.24.19-.46.44-.68.74-.13.18-.24.35-.31.47l-.08.12c-1.35,2.03-3.22,3.51-5.54,4.38-1.24.49-2.59.73-3.99.73h-.15c-3.46,0-6.33-1.25-8.51-3.72-1.31-1.43-2.18-3.11-2.58-4.98,0-.02-.21-.85-.3-2.04-.09-1.11-.1-2.74.33-4.26.46-1.71,1.33-3.28,2.58-4.67,1.16-1.3,2.54-2.3,4.12-2.98,1.45-.63,3-.95,4.6-.95,2.7.04,5.08.89,7.09,2.53,1.72,1.4,2.93,3.17,3.58,5.26.07.23.13.46.15.69.02.39-.12.69-.43.9l-.07.04-.08.02c-.11.04-.25.06-.42.08-.14.01-.28.02-.39.02-.09,0-.17,0-.2,0h-15.03c-.06,0-.12,0-.2,0-.05,0-.11,0-.18,0-.18,0-.49.04-.84.17-.56.21-1.23.72-1.23,1.92,0,1.1.67,1.6,1.22,1.82.33.13.63.19.82.21.2.02.33.02.37.02h17.47s.04,0,.1,0c.16,0,.51-.01.91-.08.73-.13,1.29-.39,1.66-.77.76-.79.9-1.99.86-2.53-.27-3.98-1.64-7.27-4.07-9.81-2.98-3.09-6.68-4.65-11.01-4.65h-.14c-4.45.04-8.23,1.67-11.23,4.84-2.98,3.16-4.48,6.98-4.46,11.36-.02,2.11.37,4.14,1.15,6.04.78,1.9,1.89,3.6,3.32,5.06,1.44,1.46,3.13,2.61,5.03,3.42,1.85.78,3.83,1.18,5.87,1.18h.14ZM192.31,16.93s0,0,0,0c0,0,0,0,0,0"/>
    <path class="cls-1" d="M53.49,35.56c-1.92,0-2.78-1.65-3.06-2.36l-11.75-25.15c-.04-.09-.07-.17-.1-.26-.06-.2-.09-.39-.09-.59,0-1.11.9-2.01,2.01-2.01.98,0,1.72.32,2.38,1.88l10.59,22.69,10.75-23.07c.72-1.33,1.51-1.5,2.23-1.48,1.11.03,2.09.93,2.09,2.04,0,.28-.06.57-.18.83l-12.07,25.69c-.42.89-1.09,1.79-2.81,1.79"/>
    <path class="cls-1" d="M147.95,35.56c-1.92,0-2.78-1.65-3.06-2.36l-11.75-25.15c-.04-.09-.07-.17-.1-.26-.06-.2-.09-.39-.09-.59,0-1.11.9-2.01,2.01-2.01.99,0,1.72.32,2.38,1.88l10.59,22.69,10.76-23.07c.72-1.33,1.51-1.5,2.23-1.48,1.11.03,2.08.93,2.08,2.04,0,.28-.06.57-.18.83l-12.07,25.69c-.43.89-1.1,1.79-2.81,1.79"/>
    <path class="cls-1" d="M114.99,35.63c-.17,0-.43-.01-.73-.05-.71-.11-1.23-.35-1.56-.72-.26-.3-.44-.79-.49-1.4-.04-.46,0-.84,0-.85V7.13c.05-1.17.94-2.06,2.08-2.06s2.02.88,2.08,1.99v24.35l.55.03c1.9.03,16.8.04,16.94.04,1.14,0,2.06.94,2.06,2.08s-.93,2.07-2.07,2.07h-18.64c-.07,0-.13,0-.21,0"/>
  </g>
</svg>